<svg xmlns="http://www.w3.org/2000/svg" version="1.1" xmlns:xlink="http://www.w3.org/1999/xlink" xmlns:svgjs="http://svgjs.dev/svgjs" viewBox="0 0 1422 800"><g stroke-width="4.5" stroke="#4e5eb3" fill="none" stroke-linecap="butt"><line x1="88" y1="0" x2="0" y2="88"></line><line x1="88" y1="0" x2="176" y2="88"></line><line x1="264" y1="0" x2="176" y2="88"></line><line x1="352" y1="0" x2="264" y2="88"></line><line x1="352" y1="0" x2="440" y2="88"></line><line x1="528" y1="0" x2="440" y2="88"></line><line x1="616" y1="0" x2="528" y2="88"></line><line x1="616" y1="0" x2="704" y2="88"></line><line x1="792" y1="0" x2="704" y2="88"></line><line x1="792" y1="0" x2="880" y2="88"></line><line x1="880" y1="0" x2="968" y2="88"></line><line x1="1056" y1="0" x2="968" y2="88"></line><line x1="1056" y1="0" x2="1144" y2="88"></line><line x1="1232" y1="0" x2="1144" y2="88"></line><line x1="1232" y1="0" x2="1320" y2="88"></line><line x1="1320" y1="0" x2="1408" y2="88"></line><line x1="1408" y1="0" x2="1496" y2="88"></line><line x1="0" y1="88" x2="88" y2="176"></line><line x1="176" y1="88" x2="88" y2="176"></line><line x1="176" y1="88" x2="264" y2="176"></line><line x1="352" y1="88" x2="264" y2="176"></line><line x1="352" y1="88" x2="440" y2="176"></line><line x1="528" y1="88" x2="440" y2="176"></line><line x1="528" y1="88" x2="616" y2="176"></line><line x1="616" y1="88" x2="704" y2="176"></line><line x1="792" y1="88" x2="704" y2="176"></line><line x1="792" y1="88" x2="880" y2="176"></line><line x1="880" y1="88" x2="968" y2="176"></line><line x1="1056" y1="88" x2="968" y2="176"></line><line x1="1144" y1="88" x2="1056" y2="176"></line><line x1="1232" y1="88" x2="1144" y2="176"></line><line x1="1320" y1="88" x2="1232" y2="176"></line><line x1="1408" y1="88" x2="1320" y2="176"></line><line x1="1408" y1="88" x2="1496" y2="176"></line><line x1="0" y1="176" x2="88" y2="264"></line><line x1="88" y1="176" x2="176" y2="264"></line><line x1="176" y1="176" x2="264" y2="264"></line><line x1="264" y1="176" x2="352" y2="264"></line><line x1="352" y1="176" x2="440" y2="264"></line><line x1="528" y1="176" x2="440" y2="264"></line><line x1="528" y1="176" x2="616" y2="264"></line><line x1="704" y1="176" x2="616" y2="264"></line><line x1="792" y1="176" x2="704" y2="264"></line><line x1="880" y1="176" x2="792" y2="264"></line><line x1="968" y1="176" x2="880" y2="264"></line><line x1="1056" y1="176" x2="968" y2="264"></line><line x1="1056" y1="176" x2="1144" y2="264"></line><line x1="1232" y1="176" x2="1144" y2="264"></line><line x1="1232" y1="176" x2="1320" y2="264"></line><line x1="1320" y1="176" x2="1408" y2="264"></line><line x1="1408" y1="176" x2="1496" y2="264"></line><line x1="0" y1="264" x2="88" y2="352"></line><line x1="176" y1="264" x2="88" y2="352"></line><line x1="176" y1="264" x2="264" y2="352"></line><line x1="264" y1="264" x2="352" y2="352"></line><line x1="352" y1="264" x2="440" y2="352"></line><line x1="440" y1="264" x2="528" y2="352"></line><line x1="528" y1="264" x2="616" y2="352"></line><line x1="616" y1="264" x2="704" y2="352"></line><line x1="704" y1="264" x2="792" y2="352"></line><line x1="880" y1="264" x2="792" y2="352"></line><line x1="880" y1="264" x2="968" y2="352"></line><line x1="1056" y1="264" x2="968" y2="352"></line><line x1="1056" y1="264" x2="1144" y2="352"></line><line x1="1232" y1="264" x2="1144" y2="352"></line><line x1="1232" y1="264" x2="1320" y2="352"></line><line x1="1320" y1="264" x2="1408" y2="352"></line><line x1="1496" y1="264" x2="1408" y2="352"></line><line x1="0" y1="352" x2="88" y2="440"></line><line x1="176" y1="352" x2="88" y2="440"></line><line x1="264" y1="352" x2="176" y2="440"></line><line x1="264" y1="352" x2="352" y2="440"></line><line x1="440" y1="352" x2="352" y2="440"></line><line x1="440" y1="352" x2="528" y2="440"></line><line x1="616" y1="352" x2="528" y2="440"></line><line x1="616" y1="352" x2="704" y2="440"></line><line x1="704" y1="352" x2="792" y2="440"></line><line x1="792" y1="352" x2="880" y2="440"></line><line x1="968" y1="352" x2="880" y2="440"></line><line x1="1056" y1="352" x2="968" y2="440"></line><line x1="1056" y1="352" x2="1144" y2="440"></line><line x1="1232" y1="352" x2="1144" y2="440"></line><line x1="1320" y1="352" x2="1232" y2="440"></line><line x1="1320" y1="352" x2="1408" y2="440"></line><line x1="1408" y1="352" x2="1496" y2="440"></line><line x1="0" y1="440" x2="88" y2="528"></line><line x1="176" y1="440" x2="88" y2="528"></line><line x1="264" y1="440" x2="176" y2="528"></line><line x1="352" y1="440" x2="264" y2="528"></line><line x1="440" y1="440" x2="352" y2="528"></line><line x1="440" y1="440" x2="528" y2="528"></line><line x1="528" y1="440" x2="616" y2="528"></line><line x1="616" y1="440" x2="704" y2="528"></line><line x1="792" y1="440" x2="704" y2="528"></line><line x1="792" y1="440" x2="880" y2="528"></line><line x1="880" y1="440" x2="968" y2="528"></line><line x1="968" y1="440" x2="1056" y2="528"></line><line x1="1056" y1="440" x2="1144" y2="528"></line><line x1="1144" y1="440" x2="1232" y2="528"></line><line x1="1232" y1="440" x2="1320" y2="528"></line><line x1="1408" y1="440" x2="1320" y2="528"></line><line x1="1408" y1="440" x2="1496" y2="528"></line><line x1="88" y1="528" x2="0" y2="616"></line><line x1="88" y1="528" x2="176" y2="616"></line><line x1="264" y1="528" x2="176" y2="616"></line><line x1="264" y1="528" x2="352" y2="616"></line><line x1="352" y1="528" x2="440" y2="616"></line><line x1="440" y1="528" x2="528" y2="616"></line><line x1="528" y1="528" x2="616" y2="616"></line><line x1="616" y1="528" x2="704" y2="616"></line><line x1="704" y1="528" x2="792" y2="616"></line><line x1="792" y1="528" x2="880" y2="616"></line><line x1="968" y1="528" x2="880" y2="616"></line><line x1="968" y1="528" x2="1056" y2="616"></line><line x1="1056" y1="528" x2="1144" y2="616"></line><line x1="1232" y1="528" x2="1144" y2="616"></line><line x1="1232" y1="528" x2="1320" y2="616"></line><line x1="1408" y1="528" x2="1320" y2="616"></line><line x1="1496" y1="528" x2="1408" y2="616"></line><line x1="0" y1="616" x2="88" y2="704"></line><line x1="176" y1="616" x2="88" y2="704"></line><line x1="264" y1="616" x2="176" y2="704"></line><line x1="264" y1="616" x2="352" y2="704"></line><line x1="352" y1="616" x2="440" y2="704"></line><line x1="440" y1="616" x2="528" y2="704"></line><line x1="528" y1="616" x2="616" y2="704"></line><line x1="704" y1="616" x2="616" y2="704"></line><line x1="704" y1="616" x2="792" y2="704"></line><line x1="792" y1="616" x2="880" y2="704"></line><line x1="880" y1="616" x2="968" y2="704"></line><line x1="1056" y1="616" x2="968" y2="704"></line><line x1="1056" y1="616" x2="1144" y2="704"></line><line x1="1144" y1="616" x2="1232" y2="704"></line><line x1="1232" y1="616" x2="1320" y2="704"></line><line x1="1320" y1="616" x2="1408" y2="704"></line><line x1="1408" y1="616" x2="1496" y2="704"></line><line x1="88" y1="704" x2="0" y2="792"></line><line x1="88" y1="704" x2="176" y2="792"></line><line x1="176" y1="704" x2="264" y2="792"></line><line x1="264" y1="704" x2="352" y2="792"></line><line x1="352" y1="704" x2="440" y2="792"></line><line x1="440" y1="704" x2="528" y2="792"></line><line x1="528" y1="704" x2="616" y2="792"></line><line x1="704" y1="704" x2="616" y2="792"></line><line x1="792" y1="704" x2="704" y2="792"></line><line x1="792" y1="704" x2="880" y2="792"></line><line x1="880" y1="704" x2="968" y2="792"></line><line x1="968" y1="704" x2="1056" y2="792"></line><line x1="1056" y1="704" x2="1144" y2="792"></line><line x1="1144" y1="704" x2="1232" y2="792"></line><line x1="1320" y1="704" x2="1232" y2="792"></line><line x1="1320" y1="704" x2="1408" y2="792"></line><line x1="1408" y1="704" x2="1496" y2="792"></line><line x1="0" y1="792" x2="88" y2="880"></line><line x1="176" y1="792" x2="88" y2="880"></line><line x1="264" y1="792" x2="176" y2="880"></line><line x1="264" y1="792" x2="352" y2="880"></line><line x1="352" y1="792" x2="440" y2="880"></line><line x1="440" y1="792" x2="528" y2="880"></line><line x1="616" y1="792" x2="528" y2="880"></line><line x1="704" y1="792" x2="616" y2="880"></line><line x1="792" y1="792" x2="704" y2="880"></line><line x1="880" y1="792" x2="792" y2="880"></line><line x1="880" y1="792" x2="968" y2="880"></line><line x1="1056" y1="792" x2="968" y2="880"></line><line x1="1056" y1="792" x2="1144" y2="880"></line><line x1="1232" y1="792" x2="1144" y2="880"></line><line x1="1320" y1="792" x2="1232" y2="880"></line><line x1="1320" y1="792" x2="1408" y2="880"></line><line x1="1496" y1="792" x2="1408" y2="880"></line></g></svg>